<?xml version="1.0" encoding="utf-8"?>
<!-- Generator: Adobe Illustrator 26.3.1, SVG Export Plug-In . SVG Version: 6.00 Build 0)  -->
<svg version="1.1" xmlns="http://www.w3.org/2000/svg" xmlns:xlink="http://www.w3.org/1999/xlink" x="0px" y="0px"
	 viewBox="0 0 250 250" style="enable-background:new 0 0 250 250;" xml:space="preserve">
<style type="text/css">
	.st0{display:none;}
	.st1{display:inline;fill:none;stroke:#231F20;stroke-width:0.25;stroke-miterlimit:10;}
	.st2{display:inline;}
	.st3{fill:#66BE6F;}
	.st4{fill:#FFFFFF;}
	.st5{fill:#EC1C24;}
	.st6{opacity:0.16;}
	.st7{opacity:0.2;fill:#6D6E70;}
	.st8{opacity:0.3;fill:#757779;}
	.st9{display:inline;fill:#66BE6F;}
	.st10{display:inline;fill:#68BE6F;}
	.st11{display:inline;fill:#EC1C24;}
	.st12{fill:#67BE6F;}
	.st13{fill:none;}
	.st14{fill:#68BE6F;}
	.st15{fill-rule:evenodd;clip-rule:evenodd;fill:#68BE6F;}
	.st16{fill-rule:evenodd;clip-rule:evenodd;fill:#EC1C24;}
	.st17{display:inline;fill-rule:evenodd;clip-rule:evenodd;fill:#68BE6F;}
	.st18{fill:#000000;}
	.st19{fill:#FB2E32;}
	.st20{fill:#6B1515;}
</style>
<g id="BG" class="st0">
	<rect x="25" y="25" class="st1" width="200" height="200"/>
</g>
<g id="Layer_1" class="st0">
</g>
<g id="Layer_2" class="st0">
</g>
<g id="Layer_4" class="st0">
</g>
<g id="Layer_5" class="st0">
</g>
<g id="Layer_6" class="st0">
</g>
<g id="Layer_7" class="st0">
</g>
<g id="Layer_8" class="st0">
</g>
<g id="Layer_9" class="st0">
</g>
<g id="Layer_20" class="st0">
</g>
<g id="Layer_21" class="st0">
</g>
<g id="Layer_22" class="st0">
</g>
<g id="Layer_28" class="st0">
</g>
<g id="Layer_10" class="st0">
</g>
<g id="Layer_11" class="st0">
</g>
<g id="Layer_12" class="st0">
</g>
<g id="Layer_13" class="st0">
</g>
<g id="Layer_14" class="st0">
</g>
<g id="Layer_15" class="st0">
</g>
<g id="Layer_16" class="st0">
</g>
<g id="Layer_17" class="st0">
</g>
<g id="Layer_18" class="st0">
</g>
<g id="Layer_19" class="st0">
</g>
<g id="Layer_23" class="st0">
</g>
<g id="Layer_24" class="st0">
</g>
<g id="Layer_25" class="st0">
</g>
<g id="Layer_26" class="st0">
</g>
<g id="Layer_27" class="st0">
</g>
<g id="Layer_29" class="st0">
</g>
<g id="Layer_31">
	<g>
		<g>
			<g>
				<g>
					<path class="st18" d="M166.35,213.1c-32.34,0-58.65-26.31-58.65-58.65c0-32.34,26.31-58.65,58.65-58.65
						c32.34,0,58.65,26.31,58.65,58.65C225,186.79,198.69,213.1,166.35,213.1z M166.35,102.79c-28.49,0-51.66,23.18-51.66,51.66
						c0,28.49,23.18,51.66,51.66,51.66c28.49,0,51.66-23.18,51.66-51.66C218.01,125.97,194.84,102.79,166.35,102.79z"/>
				</g>
				<g>
					<path class="st18" d="M165.52,118.28c-1.55,0-2.81-1.26-2.81-2.81v-6.11c0-1.55,1.26-2.81,2.81-2.81h2.19
						c1.55,0,2.81,1.26,2.81,2.81v6.11c0,1.55-1.26,2.81-2.81,2.81H165.52z"/>
				</g>
				<g>
					<path class="st18" d="M205.33,158.35c-1.55,0-2.81-1.25-2.81-2.81v-2.19c0-1.55,1.26-2.81,2.81-2.81h6.11
						c1.55,0,2.81,1.26,2.81,2.81v2.19c0,1.55-1.26,2.81-2.81,2.81H205.33z"/>
				</g>
				<g>
					<path class="st18" d="M165.36,202.49c-1.55,0-2.81-1.26-2.81-2.81v-6.11c0-1.55,1.26-2.81,2.81-2.81h2.19
						c1.55,0,2.81,1.26,2.81,2.81v6.11c0,1.55-1.26,2.81-2.81,2.81H165.36z"/>
				</g>
				<g>
					<path class="st18" d="M121.26,158.62c-1.55,0-2.81-1.25-2.81-2.81v-2.19c0-1.55,1.26-2.81,2.81-2.81h6.11
						c1.55,0,2.81,1.26,2.81,2.81v2.19c0,1.55-1.26,2.81-2.81,2.81H121.26z"/>
				</g>
			</g>
			<g>
				
					<ellipse transform="matrix(0.1616 -0.9869 0.9869 0.1616 -12.7316 293.9198)" class="st19" cx="166.61" cy="154.45" rx="10.27" ry="10.27"/>
				<polygon class="st19" points="190.56,112.42 159.26,151.34 166.42,155.37 173.57,159.39 				"/>
			</g>
		</g>
		<path class="st18" d="M95.12,152.27c0-37.33,30.26-67.59,67.59-67.59c10.33,0,20.11,2.33,28.86,6.47
			c2.14-19.9-7.48-49.29-39.59-52.53c-36.06-3.63-43.86,24.32-43.86,24.32c-2.09-15.81-20.13-23.57-20.13-23.57
			C54.9,29.7,38.15,50.79,30.79,62.59c-7.35,11.79-8.29,30.26,0.59,46.43c8.9,16.21,35.74,36.21,43.53,42.25
			c4.45,3.44,14.22,10.34,21.81,15.64C95.68,162.19,95.12,157.3,95.12,152.27z"/>
	</g>
</g>
<g id="Layer_30">
</g>
</svg>
